<svg xmlns="http://www.w3.org/2000/svg" viewBox="0 0 16 16" width="64" height="64" style="image-rendering:pixelated">
<rect width="16" height="16" fill="#0a0a0a"/>
<rect x="3" y="1" width="1" height="1" fill="#e8e8e0"/>
<rect x="5" y="2" width="1" height="1" fill="#e8e8e0"/>
<rect x="10" y="2" width="1" height="1" fill="#e8e8e0"/>
<rect x="12" y="1" width="1" height="1" fill="#e8e8e0"/>
<rect x="4" y="4" width="8" height="1" fill="#e8e8e0"/>
<rect x="3" y="5" width="10" height="1" fill="#e8e8e0"/>
<rect x="2" y="6" width="12" height="3" fill="#e8e8e0"/>
<rect x="3" y="9" width="10" height="1" fill="#e8e8e0"/>
<rect x="4" y="10" width="8" height="1" fill="#e8e8e0"/>
<rect x="3" y="6" width="3" height="2" fill="#0a0a0a"/>
<rect x="10" y="6" width="3" height="2" fill="#0a0a0a"/>
<rect x="5" y="11" width="2" height="1" fill="#e8e8e0"/>
<rect x="9" y="11" width="2" height="1" fill="#e8e8e0"/>
<rect x="2" y="12" width="3" height="1" fill="#e8e8e0"/>
<rect x="7" y="12" width="2" height="1" fill="#e8e8e0"/>
<rect x="11" y="12" width="3" height="1" fill="#e8e8e0"/>
<rect x="1" y="13" width="2" height="1" fill="#e8e8e0"/>
<rect x="13" y="13" width="2" height="1" fill="#e8e8e0"/>
</svg>
